<?xml version="1.0" encoding="UTF-8"?> <svg xmlns="http://www.w3.org/2000/svg" width="97" height="32" viewBox="0 0 97 32" fill="none"><path d="M0 19.6197V2.28589H6.45083V19.6197C6.45083 22.652 7.92452 23.729 9.87502 23.729C11.8255 23.729 13.2992 22.652 13.2992 19.6197V2.28589H19.75V19.6197C19.75 22.652 21.2634 23.729 23.1742 23.729C25.0851 23.729 26.5984 22.652 26.5984 19.6197V2.28589H33.0492V19.6197C33.0492 26.6013 28.9873 29.7131 23.7315 29.7131C20.586 29.7131 18.077 28.4761 16.524 26.1224C14.9711 28.4761 12.4621 29.7131 9.31653 29.7131C4.06194 29.7131 0 26.6013 0 19.6197Z" fill="#CF1F39"></path><path d="M62.9466 18.1467C63.0595 17.4307 63.1196 16.6979 63.116 15.9506C63.0895 8.38776 56.927 2.25806 49.3796 2.28574C41.8322 2.31341 35.714 8.48764 35.7417 16.0493C35.7681 23.6109 41.9319 29.7406 49.4781 29.713C55.0449 29.6925 59.8299 26.3268 61.9497 21.5292L54.4816 21.5557C53.1521 22.7698 51.3925 23.5207 49.4552 23.5279C46.0719 23.5399 43.1966 21.2982 42.2465 18.2153L62.9466 18.1443M49.4012 8.46839C52.4507 8.45756 55.0858 10.2782 56.2724 12.8942L42.5612 12.9435C43.7286 10.3191 46.3517 8.47922 49.4012 8.46839Z" fill="#CF1F39"></path><path d="M89.313 2.28589H80.9561L74.9833 11.0689L69.0104 2.28589H60.6523L69.9773 16.0001L60.6523 29.7143H69.0104L74.9833 20.9313L80.9561 29.7143H89.313L79.9868 16.0001L89.313 2.28589ZM68.2574 28.2848H63.3499L71.7032 16.0001L63.3499 3.71423H68.2574L76.6107 15.9989L68.2574 28.2836V28.2848Z" fill="#CF1F39"></path><path d="M67.5035 5.1438H66.0479L73.4295 16.0001L66.0479 26.8565H67.5035L74.8852 16.0001L67.5035 5.1438Z" fill="#CF1F39"></path><path d="M78.3356 16.0002V25.859L74.9835 20.929L78.3356 16.0002Z" fill="#8E1928"></path><path d="M92.2931 2.88394H91.3299V5.49995H90.5564V2.88394H89.6112V2.28589H92.2931V2.88394Z" fill="#CF1F39"></path><path d="M93.6358 2.28589L94.3516 4.52286L95.065 2.28589H96.0835V5.49995H95.3077V4.74908L95.3821 3.21244L94.6062 5.49995H94.0946L93.3163 3.21004L93.3908 4.74908V5.49995H92.6173V2.28589H93.6334H93.6358Z" fill="#CF1F39"></path></svg> 